<?xml version="1.0" encoding="utf-8" standalone="no"?>
<!DOCTYPE svg PUBLIC "-//W3C//DTD SVG 1.1//EN"
  "http://www.w3.org/Graphics/SVG/1.1/DTD/svg11.dtd">
<svg xmlns:xlink="http://www.w3.org/1999/xlink" width="864pt" height="288pt" viewBox="0 0 864 288" xmlns="http://www.w3.org/2000/svg" version="1.1">
 <metadata>
  <rdf:RDF xmlns:dc="http://purl.org/dc/elements/1.1/" xmlns:cc="http://creativecommons.org/ns#" xmlns:rdf="http://www.w3.org/1999/02/22-rdf-syntax-ns#">
   <cc:Work>
    <dc:type rdf:resource="http://purl.org/dc/dcmitype/StillImage"/>
    <dc:date>2026-09-28T06:21:23.866193</dc:date>
    <dc:format>image/svg+xml</dc:format>
    <dc:creator>
     <cc:Agent>
      <dc:title>Matplotlib v3.10.7+dfsg1, https://matplotlib.org/</dc:title>
     </cc:Agent>
    </dc:creator>
   </cc:Work>
  </rdf:RDF>
 </metadata>
 <defs>
  <style type="text/css">*{stroke-linejoin: round; stroke-linecap: butt}</style>
 </defs>
 <g id="figure_1">
  <g id="patch_1">
   <path d="M 0 288 
L 864 288 
L 864 0 
L 0 0 
z
" style="fill: #ffffff"/>
  </g>
  <g id="axes_1">
   <g id="line2d_1">
    <path d="M 179.846999 136.380938 
L 179.726062 132.542285 
L 179.363731 128.718857 
L 178.761442 124.92582 
L 177.921585 121.178218 
L 176.84749 117.490915 
L 175.543418 113.878536 
L 174.014542 110.35541 
L 172.266925 106.93551 
L 170.307499 103.6324 
L 168.144036 100.459183 
L 165.785117 97.428443 
L 163.240098 94.552203 
L 160.519073 91.841869 
L 157.632836 89.308193 
L 154.592833 86.961224 
L 151.411123 84.81027 
L 148.100325 82.863863 
L 144.673571 81.129723 
L 141.144453 79.614729 
L 137.526969 78.324888 
L 133.835466 77.265318 
L 130.084587 76.440221 
L 126.289208 75.85287 
L 122.464384 75.505593 
L 118.625284 75.399769 
L 114.787137 75.535817 
L 110.965166 75.913198 
L 107.174529 76.530415 
L 103.430263 77.385019 
L 99.747217 78.473622 
L 96.14 79.791905 
L 92.62292 81.334639 
L 89.209926 83.095706 
L 85.914556 85.06812 
L 82.749881 87.244059 
L 79.728451 89.614891 
L 76.862252 92.171214 
L 74.162652 94.902888 
L 71.640358 97.799077 
L 69.305375 100.848296 
L 67.166963 104.03845 
L 65.233605 107.356884 
L 63.51297 110.790439 
L 62.01188 114.325493 
L 60.736291 117.948028 
L 59.691262 121.643673 
L 58.880938 125.397772 
L 58.308533 129.195434 
L 57.976317 133.021595 
L 57.885607 136.861082 
L 58.036765 140.698663 
L 58.429189 144.519119 
L 59.061324 148.307297 
L 59.930662 152.04817 
L 61.033756 155.726902 
L 62.366229 159.328901 
L 63.922798 162.83988 
L 65.697288 166.245914 
L 67.68266 169.533494 
L 69.871041 172.689578 
L 72.25375 175.701651 
L 74.821336 178.557764 
L 77.563616 181.246589 
L 80.469714 183.757462 
L 83.528101 186.080423 
L 86.726648 188.206258 
L 90.052669 190.126537 
L 93.49297 191.833642 
L 97.033907 193.320803 
L 100.661435 194.582121 
L 104.361166 195.612593 
L 108.118426 196.408131 
L 111.918312 196.965582 
L 115.745752 197.282732 
L 119.585565 197.358326 
L 123.422522 197.192062 
L 127.241404 196.7846 
L 131.027063 196.137556 
L 134.764485 195.253498 
L 138.438845 194.13593 
L 142.035571 192.789286 
L 145.540395 191.218908 
L 148.939417 189.431023 
L 152.219155 187.432723 
L 155.3666 185.231935 
L 158.369269 182.837386 
L 161.215251 180.258576 
L 163.89326 177.505731 
L 166.392672 174.589772 
L 168.703575 171.522263 
L 170.816802 168.315371 
L 172.723972 164.981817 
L 174.41752 161.534822 
L 175.890729 157.988057 
L 177.137756 154.355592 
L 178.153655 150.651833 
L 178.934396 146.89147 
L 179.476882 143.089419 
L 179.778962 139.26076 
L 179.846999 136.380938 
L 179.846999 136.380938 
" clip-path="url(#pbe15a9eb13)" style="fill: none; stroke: #777777; stroke-width: 1.2; stroke-linecap: square"/>
   </g>
   <g id="line2d_2">
    <path d="M 219.485066 136.380938 
L 219.372805 131.62923 
L 219.036273 126.888125 
L 218.47622 122.168202 
L 217.693896 117.479994 
L 216.691048 112.833961 
L 215.469911 108.24047 
L 214.033213 103.709772 
L 212.384157 99.251976 
L 210.526425 94.877029 
L 208.464161 90.594693 
L 206.201967 86.414525 
L 203.744891 82.345851 
L 201.098415 78.397751 
L 198.268446 74.579034 
L 195.261297 70.898221 
L 192.083679 67.363525 
L 188.742682 63.982835 
L 185.245761 60.763693 
L 181.60072 57.713282 
L 177.815692 54.83841 
L 173.899122 52.145491 
L 169.859751 49.640534 
L 165.706591 47.329129 
L 161.44891 45.216434 
L 157.096209 43.307162 
L 152.658199 41.605574 
L 148.144785 40.115467 
L 143.566036 38.840166 
L 138.932171 37.782516 
L 134.253529 36.944879 
L 129.54055 36.329121 
L 124.80375 35.936619 
L 120.0537 35.768247 
L 115.300997 35.824382 
L 110.556249 36.104897 
L 105.830041 36.609167 
L 101.13292 37.336068 
L 96.475367 38.283976 
L 91.867775 39.450777 
L 87.320425 40.833866 
L 82.843464 42.430159 
L 78.446882 44.236093 
L 74.140489 46.247638 
L 69.933896 48.460305 
L 65.836487 50.869158 
L 61.857406 53.468821 
L 58.005533 56.253493 
L 54.289462 59.216961 
L 50.717484 62.352613 
L 47.297572 65.65345 
L 44.037355 69.112108 
L 40.944108 72.720868 
L 38.024734 76.47168 
L 35.285748 80.356172 
L 32.73326 84.365678 
L 30.372966 88.49125 
L 28.210134 92.723682 
L 26.249589 97.053531 
L 24.495706 101.471135 
L 22.952398 105.966636 
L 21.62311 110.530004 
L 20.510807 115.151055 
L 19.617972 119.819478 
L 18.946596 124.524856 
L 18.498179 129.25669 
L 18.273719 134.004421 
L 18.273719 138.757454 
L 18.498179 143.505185 
L 18.946596 148.237019 
L 19.617972 152.942397 
L 20.510807 157.61082 
L 21.62311 162.231871 
L 22.952398 166.795239 
L 24.495706 171.29074 
L 26.249589 175.708344 
L 28.210134 180.038193 
L 30.372966 184.270625 
L 32.73326 188.396197 
L 35.285748 192.405703 
L 38.024734 196.290195 
L 40.944108 200.041007 
L 44.037355 203.649767 
L 47.297572 207.108425 
L 50.717484 210.409262 
L 54.289462 213.544914 
L 58.005533 216.508382 
L 61.857406 219.293054 
L 65.836487 221.892717 
L 69.933896 224.30157 
L 74.140489 226.514237 
L 78.446882 228.525782 
L 82.843464 230.331716 
L 87.320425 231.928009 
L 91.867775 233.311098 
L 96.475367 234.477899 
L 101.13292 235.425807 
L 105.830041 236.152708 
L 110.556249 236.656978 
L 115.300997 236.937493 
L 120.0537 236.993628 
L 124.80375 236.825256 
L 129.54055 236.432754 
L 134.253529 235.816996 
L 138.932171 234.979359 
L 143.566036 233.921709 
L 148.144785 232.646408 
L 152.658199 231.156301 
L 157.096209 229.454713 
L 161.44891 227.545441 
L 165.706591 225.432746 
L 169.859751 223.121341 
L 173.899122 220.616384 
L 177.815692 217.923465 
L 181.60072 215.048593 
L 185.245761 211.998182 
L 188.742682 208.77904 
L 192.083679 205.39835 
L 195.261297 201.863654 
L 198.268446 198.182841 
L 201.098415 194.364124 
L 203.744891 190.416024 
L 206.201967 186.34735 
L 208.464161 182.167182 
L 210.526425 177.884846 
L 212.384157 173.509899 
L 214.033213 169.052103 
L 215.469911 164.521405 
L 216.691048 159.927914 
L 217.693896 155.281881 
L 218.47622 150.593673 
L 219.036273 145.87375 
L 219.372805 141.132645 
L 219.485066 136.380938 
L 219.485066 136.380938 
" clip-path="url(#pbe15a9eb13)" style="fill: none; stroke: #3a75a8; stroke-width: 1.2; stroke-linecap: square"/>
   </g>
   <g id="line2d_3">
    <path d="M 3.00024 136.380938 
L 234.730476 136.380938 
" clip-path="url(#pbe15a9eb13)" style="fill: none; stroke-dasharray: 1,1.65; stroke-dashoffset: 0; stroke: #999999"/>
   </g>
   <g id="line2d_4">
    <path d="M 118.865358 136.380938 
L 228.632312 136.380938 
" clip-path="url(#pbe15a9eb13)" style="fill: none; stroke: #000000; stroke-width: 1.6; stroke-linecap: square"/>
   </g>
   <g id="line2d_5">
    <path d="M 178.861761 125.46342 
L 217.859423 118.367034 
" clip-path="url(#pbe15a9eb13)" style="fill: none; stroke-dasharray: 5.55,2.4; stroke-dashoffset: 0; stroke: #555555; stroke-width: 1.5"/>
   </g>
   <g id="text_1">
    <!-- $M_1$ -->
    <g transform="translate(176.861761 117.46342) scale(0.1 -0.1)">
     <defs>
      <path id="DejaVuSans-Oblique-4d" d="M 1081 4666 
L 2028 4666 
L 2572 1522 
L 4378 4666 
L 5350 4666 
L 4441 0 
L 3828 0 
L 4622 4091 
L 2791 897 
L 2175 897 
L 1581 4103 
L 788 0 
L 172 0 
L 1081 4666 
z
" transform="scale(0.015625)"/>
      <path id="DejaVuSans-31" d="M 794 531 
L 1825 531 
L 1825 4091 
L 703 3866 
L 703 4441 
L 1819 4666 
L 2450 4666 
L 2450 531 
L 3481 531 
L 3481 0 
L 794 0 
L 794 531 
z
" transform="scale(0.015625)"/>
     </defs>
     <use xlink:href="#DejaVuSans-Oblique-4d" transform="translate(0 0.09375)"/>
     <use xlink:href="#DejaVuSans-31" transform="translate(86.279297 -16.3125) scale(0.7)"/>
    </g>
   </g>
   <g id="text_2">
    <!-- $M_2$ (above plane) -->
    <g transform="translate(199.859423 110.367034) scale(0.08 -0.08)">
     <defs>
      <path id="DejaVuSans-32" d="M 1228 531 
L 3431 531 
L 3431 0 
L 469 0 
L 469 531 
Q 828 903 1448 1529 
Q 2069 2156 2228 2338 
Q 2531 2678 2651 2914 
Q 2772 3150 2772 3378 
Q 2772 3750 2511 3984 
Q 2250 4219 1831 4219 
Q 1534 4219 1204 4116 
Q 875 4013 500 3803 
L 500 4441 
Q 881 4594 1212 4672 
Q 1544 4750 1819 4750 
Q 2544 4750 2975 4387 
Q 3406 4025 3406 3419 
Q 3406 3131 3298 2873 
Q 3191 2616 2906 2266 
Q 2828 2175 2409 1742 
Q 1991 1309 1228 531 
z
" transform="scale(0.015625)"/>
      <path id="DejaVuSans-20" transform="scale(0.015625)"/>
      <path id="DejaVuSans-28" d="M 1984 4856 
Q 1566 4138 1362 3434 
Q 1159 2731 1159 2009 
Q 1159 1288 1364 580 
Q 1569 -128 1984 -844 
L 1484 -844 
Q 1016 -109 783 600 
Q 550 1309 550 2009 
Q 550 2706 781 3412 
Q 1013 4119 1484 4856 
L 1984 4856 
z
" transform="scale(0.015625)"/>
      <path id="DejaVuSans-61" d="M 2194 1759 
Q 1497 1759 1228 1600 
Q 959 1441 959 1056 
Q 959 750 1161 570 
Q 1363 391 1709 391 
Q 2188 391 2477 730 
Q 2766 1069 2766 1631 
L 2766 1759 
L 2194 1759 
z
M 3341 1997 
L 3341 0 
L 2766 0 
L 2766 531 
Q 2569 213 2275 61 
Q 1981 -91 1556 -91 
Q 1019 -91 701 211 
Q 384 513 384 1019 
Q 384 1609 779 1909 
Q 1175 2209 1959 2209 
L 2766 2209 
L 2766 2266 
Q 2766 2663 2505 2880 
Q 2244 3097 1772 3097 
Q 1472 3097 1187 3025 
Q 903 2953 641 2809 
L 641 3341 
Q 956 3463 1253 3523 
Q 1550 3584 1831 3584 
Q 2591 3584 2966 3190 
Q 3341 2797 3341 1997 
z
" transform="scale(0.015625)"/>
      <path id="DejaVuSans-62" d="M 3116 1747 
Q 3116 2381 2855 2742 
Q 2594 3103 2138 3103 
Q 1681 3103 1420 2742 
Q 1159 2381 1159 1747 
Q 1159 1113 1420 752 
Q 1681 391 2138 391 
Q 2594 391 2855 752 
Q 3116 1113 3116 1747 
z
M 1159 2969 
Q 1341 3281 1617 3432 
Q 1894 3584 2278 3584 
Q 2916 3584 3314 3078 
Q 3713 2572 3713 1747 
Q 3713 922 3314 415 
Q 2916 -91 2278 -91 
Q 1894 -91 1617 61 
Q 1341 213 1159 525 
L 1159 0 
L 581 0 
L 581 4863 
L 1159 4863 
L 1159 2969 
z
" transform="scale(0.015625)"/>
      <path id="DejaVuSans-6f" d="M 1959 3097 
Q 1497 3097 1228 2736 
Q 959 2375 959 1747 
Q 959 1119 1226 758 
Q 1494 397 1959 397 
Q 2419 397 2687 759 
Q 2956 1122 2956 1747 
Q 2956 2369 2687 2733 
Q 2419 3097 1959 3097 
z
M 1959 3584 
Q 2709 3584 3137 3096 
Q 3566 2609 3566 1747 
Q 3566 888 3137 398 
Q 2709 -91 1959 -91 
Q 1206 -91 779 398 
Q 353 888 353 1747 
Q 353 2609 779 3096 
Q 1206 3584 1959 3584 
z
" transform="scale(0.015625)"/>
      <path id="DejaVuSans-76" d="M 191 3500 
L 800 3500 
L 1894 563 
L 2988 3500 
L 3597 3500 
L 2284 0 
L 1503 0 
L 191 3500 
z
" transform="scale(0.015625)"/>
      <path id="DejaVuSans-65" d="M 3597 1894 
L 3597 1613 
L 953 1613 
Q 991 1019 1311 708 
Q 1631 397 2203 397 
Q 2534 397 2845 478 
Q 3156 559 3463 722 
L 3463 178 
Q 3153 47 2828 -22 
Q 2503 -91 2169 -91 
Q 1331 -91 842 396 
Q 353 884 353 1716 
Q 353 2575 817 3079 
Q 1281 3584 2069 3584 
Q 2775 3584 3186 3129 
Q 3597 2675 3597 1894 
z
M 3022 2063 
Q 3016 2534 2758 2815 
Q 2500 3097 2075 3097 
Q 1594 3097 1305 2825 
Q 1016 2553 972 2059 
L 3022 2063 
z
" transform="scale(0.015625)"/>
      <path id="DejaVuSans-70" d="M 1159 525 
L 1159 -1331 
L 581 -1331 
L 581 3500 
L 1159 3500 
L 1159 2969 
Q 1341 3281 1617 3432 
Q 1894 3584 2278 3584 
Q 2916 3584 3314 3078 
Q 3713 2572 3713 1747 
Q 3713 922 3314 415 
Q 2916 -91 2278 -91 
Q 1894 -91 1617 61 
Q 1341 213 1159 525 
z
M 3116 1747 
Q 3116 2381 2855 2742 
Q 2594 3103 2138 3103 
Q 1681 3103 1420 2742 
Q 1159 2381 1159 1747 
Q 1159 1113 1420 752 
Q 1681 391 2138 391 
Q 2594 391 2855 752 
Q 3116 1113 3116 1747 
z
" transform="scale(0.015625)"/>
      <path id="DejaVuSans-6c" d="M 603 4863 
L 1178 4863 
L 1178 0 
L 603 0 
L 603 4863 
z
" transform="scale(0.015625)"/>
      <path id="DejaVuSans-6e" d="M 3513 2113 
L 3513 0 
L 2938 0 
L 2938 2094 
Q 2938 2591 2744 2837 
Q 2550 3084 2163 3084 
Q 1697 3084 1428 2787 
Q 1159 2491 1159 1978 
L 1159 0 
L 581 0 
L 581 3500 
L 1159 3500 
L 1159 2956 
Q 1366 3272 1645 3428 
Q 1925 3584 2291 3584 
Q 2894 3584 3203 3211 
Q 3513 2838 3513 2113 
z
" transform="scale(0.015625)"/>
      <path id="DejaVuSans-29" d="M 513 4856 
L 1013 4856 
Q 1481 4119 1714 3412 
Q 1947 2706 1947 2009 
Q 1947 1309 1714 600 
Q 1481 -109 1013 -844 
L 513 -844 
Q 928 -128 1133 580 
Q 1338 1288 1338 2009 
Q 1338 2731 1133 3434 
Q 928 4138 513 4856 
z
" transform="scale(0.015625)"/>
     </defs>
     <use xlink:href="#DejaVuSans-Oblique-4d" transform="translate(0 0.015625)"/>
     <use xlink:href="#DejaVuSans-32" transform="translate(86.279297 -16.390625) scale(0.7)"/>
     <use xlink:href="#DejaVuSans-20" transform="translate(133.549805 0.015625)"/>
     <use xlink:href="#DejaVuSans-28" transform="translate(165.336914 0.015625)"/>
     <use xlink:href="#DejaVuSans-61" transform="translate(204.350586 0.015625)"/>
     <use xlink:href="#DejaVuSans-62" transform="translate(265.629883 0.015625)"/>
     <use xlink:href="#DejaVuSans-6f" transform="translate(329.106445 0.015625)"/>
     <use xlink:href="#DejaVuSans-76" transform="translate(390.288086 0.015625)"/>
     <use xlink:href="#DejaVuSans-65" transform="translate(449.467773 0.015625)"/>
     <use xlink:href="#DejaVuSans-20" transform="translate(510.991211 0.015625)"/>
     <use xlink:href="#DejaVuSans-70" transform="translate(542.77832 0.015625)"/>
     <use xlink:href="#DejaVuSans-6c" transform="translate(606.254883 0.015625)"/>
     <use xlink:href="#DejaVuSans-61" transform="translate(634.038086 0.015625)"/>
     <use xlink:href="#DejaVuSans-6e" transform="translate(695.317383 0.015625)"/>
     <use xlink:href="#DejaVuSans-65" transform="translate(758.696289 0.015625)"/>
     <use xlink:href="#DejaVuSans-29" transform="translate(820.219727 0.015625)"/>
    </g>
   </g>
   <g id="patch_2">
    <path d="M 215.487274 86.061698 
Q 208.463908 86.461923 202.556765 86.798541 
" style="fill: none; stroke: #000000; stroke-linecap: round"/>
    <path d="M 206.664071 88.567731 
L 202.556765 86.798541 
L 206.436501 84.57421 
" style="fill: none; stroke: #000000; stroke-linecap: round"/>
   </g>
   <g id="text_3">
    <!-- motion -->
    <g transform="translate(219.485066 87.595625) scale(0.1 -0.1)">
     <defs>
      <path id="DejaVuSans-6d" d="M 3328 2828 
Q 3544 3216 3844 3400 
Q 4144 3584 4550 3584 
Q 5097 3584 5394 3201 
Q 5691 2819 5691 2113 
L 5691 0 
L 5113 0 
L 5113 2094 
Q 5113 2597 4934 2840 
Q 4756 3084 4391 3084 
Q 3944 3084 3684 2787 
Q 3425 2491 3425 1978 
L 3425 0 
L 2847 0 
L 2847 2094 
Q 2847 2600 2669 2842 
Q 2491 3084 2119 3084 
Q 1678 3084 1418 2786 
Q 1159 2488 1159 1978 
L 1159 0 
L 581 0 
L 581 3500 
L 1159 3500 
L 1159 2956 
Q 1356 3278 1631 3431 
Q 1906 3584 2284 3584 
Q 2666 3584 2933 3390 
Q 3200 3197 3328 2828 
z
" transform="scale(0.015625)"/>
      <path id="DejaVuSans-74" d="M 1172 4494 
L 1172 3500 
L 2356 3500 
L 2356 3053 
L 1172 3053 
L 1172 1153 
Q 1172 725 1289 603 
Q 1406 481 1766 481 
L 2356 481 
L 2356 0 
L 1766 0 
Q 1100 0 847 248 
Q 594 497 594 1153 
L 594 3053 
L 172 3053 
L 172 3500 
L 594 3500 
L 594 4494 
L 1172 4494 
z
" transform="scale(0.015625)"/>
      <path id="DejaVuSans-69" d="M 603 3500 
L 1178 3500 
L 1178 0 
L 603 0 
L 603 3500 
z
M 603 4863 
L 1178 4863 
L 1178 4134 
L 603 4134 
L 603 4863 
z
" transform="scale(0.015625)"/>
     </defs>
     <use xlink:href="#DejaVuSans-6d"/>
     <use xlink:href="#DejaVuSans-6f" transform="translate(97.412109 0)"/>
     <use xlink:href="#DejaVuSans-74" transform="translate(158.59375 0)"/>
     <use xlink:href="#DejaVuSans-69" transform="translate(197.802734 0)"/>
     <use xlink:href="#DejaVuSans-6f" transform="translate(225.585938 0)"/>
     <use xlink:href="#DejaVuSans-6e" transform="translate(286.767578 0)"/>
    </g>
   </g>
   <g id="text_4">
    <!-- Face-on: conjunction after node -->
    <g transform="translate(23.795358 14.515819) scale(0.12 -0.12)">
     <defs>
      <path id="DejaVuSans-46" d="M 628 4666 
L 3309 4666 
L 3309 4134 
L 1259 4134 
L 1259 2759 
L 3109 2759 
L 3109 2228 
L 1259 2228 
L 1259 0 
L 628 0 
L 628 4666 
z
" transform="scale(0.015625)"/>
      <path id="DejaVuSans-63" d="M 3122 3366 
L 3122 2828 
Q 2878 2963 2633 3030 
Q 2388 3097 2138 3097 
Q 1578 3097 1268 2742 
Q 959 2388 959 1747 
Q 959 1106 1268 751 
Q 1578 397 2138 397 
Q 2388 397 2633 464 
Q 2878 531 3122 666 
L 3122 134 
Q 2881 22 2623 -34 
Q 2366 -91 2075 -91 
Q 1284 -91 818 406 
Q 353 903 353 1747 
Q 353 2603 823 3093 
Q 1294 3584 2113 3584 
Q 2378 3584 2631 3529 
Q 2884 3475 3122 3366 
z
" transform="scale(0.015625)"/>
      <path id="DejaVuSans-2d" d="M 313 2009 
L 1997 2009 
L 1997 1497 
L 313 1497 
L 313 2009 
z
" transform="scale(0.015625)"/>
      <path id="DejaVuSans-3a" d="M 750 794 
L 1409 794 
L 1409 0 
L 750 0 
L 750 794 
z
M 750 3309 
L 1409 3309 
L 1409 2516 
L 750 2516 
L 750 3309 
z
" transform="scale(0.015625)"/>
      <path id="DejaVuSans-6a" d="M 603 3500 
L 1178 3500 
L 1178 -63 
Q 1178 -731 923 -1031 
Q 669 -1331 103 -1331 
L -116 -1331 
L -116 -844 
L 38 -844 
Q 366 -844 484 -692 
Q 603 -541 603 -63 
L 603 3500 
z
M 603 4863 
L 1178 4863 
L 1178 4134 
L 603 4134 
L 603 4863 
z
" transform="scale(0.015625)"/>
      <path id="DejaVuSans-75" d="M 544 1381 
L 544 3500 
L 1119 3500 
L 1119 1403 
Q 1119 906 1312 657 
Q 1506 409 1894 409 
Q 2359 409 2629 706 
Q 2900 1003 2900 1516 
L 2900 3500 
L 3475 3500 
L 3475 0 
L 2900 0 
L 2900 538 
Q 2691 219 2414 64 
Q 2138 -91 1772 -91 
Q 1169 -91 856 284 
Q 544 659 544 1381 
z
M 1991 3584 
L 1991 3584 
z
" transform="scale(0.015625)"/>
      <path id="DejaVuSans-66" d="M 2375 4863 
L 2375 4384 
L 1825 4384 
Q 1516 4384 1395 4259 
Q 1275 4134 1275 3809 
L 1275 3500 
L 2222 3500 
L 2222 3053 
L 1275 3053 
L 1275 0 
L 697 0 
L 697 3053 
L 147 3053 
L 147 3500 
L 697 3500 
L 697 3744 
Q 697 4328 969 4595 
Q 1241 4863 1831 4863 
L 2375 4863 
z
" transform="scale(0.015625)"/>
      <path id="DejaVuSans-72" d="M 2631 2963 
Q 2534 3019 2420 3045 
Q 2306 3072 2169 3072 
Q 1681 3072 1420 2755 
Q 1159 2438 1159 1844 
L 1159 0 
L 581 0 
L 581 3500 
L 1159 3500 
L 1159 2956 
Q 1341 3275 1631 3429 
Q 1922 3584 2338 3584 
Q 2397 3584 2469 3576 
Q 2541 3569 2628 3553 
L 2631 2963 
z
" transform="scale(0.015625)"/>
      <path id="DejaVuSans-64" d="M 2906 2969 
L 2906 4863 
L 3481 4863 
L 3481 0 
L 2906 0 
L 2906 525 
Q 2725 213 2448 61 
Q 2172 -91 1784 -91 
Q 1150 -91 751 415 
Q 353 922 353 1747 
Q 353 2572 751 3078 
Q 1150 3584 1784 3584 
Q 2172 3584 2448 3432 
Q 2725 3281 2906 2969 
z
M 947 1747 
Q 947 1113 1208 752 
Q 1469 391 1925 391 
Q 2381 391 2643 752 
Q 2906 1113 2906 1747 
Q 2906 2381 2643 2742 
Q 2381 3103 1925 3103 
Q 1469 3103 1208 2742 
Q 947 2381 947 1747 
z
" transform="scale(0.015625)"/>
     </defs>
     <use xlink:href="#DejaVuSans-46"/>
     <use xlink:href="#DejaVuSans-61" transform="translate(48.394531 0)"/>
     <use xlink:href="#DejaVuSans-63" transform="translate(109.673828 0)"/>
     <use xlink:href="#DejaVuSans-65" transform="translate(164.654297 0)"/>
     <use xlink:href="#DejaVuSans-2d" transform="translate(226.177734 0)"/>
     <use xlink:href="#DejaVuSans-6f" transform="translate(264.136719 0)"/>
     <use xlink:href="#DejaVuSans-6e" transform="translate(325.318359 0)"/>
     <use xlink:href="#DejaVuSans-3a" transform="translate(388.697266 0)"/>
     <use xlink:href="#DejaVuSans-20" transform="translate(422.388672 0)"/>
     <use xlink:href="#DejaVuSans-63" transform="translate(454.175781 0)"/>
     <use xlink:href="#DejaVuSans-6f" transform="translate(509.15625 0)"/>
     <use xlink:href="#DejaVuSans-6e" transform="translate(570.337891 0)"/>
     <use xlink:href="#DejaVuSans-6a" transform="translate(633.716797 0)"/>
     <use xlink:href="#DejaVuSans-75" transform="translate(661.5 0)"/>
     <use xlink:href="#DejaVuSans-6e" transform="translate(724.878906 0)"/>
     <use xlink:href="#DejaVuSans-63" transform="translate(788.257812 0)"/>
     <use xlink:href="#DejaVuSans-74" transform="translate(843.238281 0)"/>
     <use xlink:href="#DejaVuSans-69" transform="translate(882.447266 0)"/>
     <use xlink:href="#DejaVuSans-6f" transform="translate(910.230469 0)"/>
     <use xlink:href="#DejaVuSans-6e" transform="translate(971.412109 0)"/>
     <use xlink:href="#DejaVuSans-20" transform="translate(1034.791016 0)"/>
     <use xlink:href="#DejaVuSans-61" transform="translate(1066.578125 0)"/>
     <use xlink:href="#DejaVuSans-66" transform="translate(1127.857422 0)"/>
     <use xlink:href="#DejaVuSans-74" transform="translate(1161.3125 0)"/>
     <use xlink:href="#DejaVuSans-65" transform="translate(1200.521484 0)"/>
     <use xlink:href="#DejaVuSans-72" transform="translate(1262.044922 0)"/>
     <use xlink:href="#DejaVuSans-20" transform="translate(1303.158203 0)"/>
     <use xlink:href="#DejaVuSans-6e" transform="translate(1334.945312 0)"/>
     <use xlink:href="#DejaVuSans-6f" transform="translate(1398.324219 0)"/>
     <use xlink:href="#DejaVuSans-64" transform="translate(1459.505859 0)"/>
     <use xlink:href="#DejaVuSans-65" transform="translate(1522.982422 0)"/>
    </g>
   </g>
   <g id="PathCollection_1">
    <defs>
     <path id="mdfd2752a7e" d="M 0 4.743416 
C 1.257969 4.743416 2.464584 4.24362 3.354102 3.354102 
C 4.24362 2.464584 4.743416 1.257969 4.743416 0 
C 4.743416 -1.257969 4.24362 -2.464584 3.354102 -3.354102 
C 2.464584 -4.24362 1.257969 -4.743416 0 -4.743416 
C -1.257969 -4.743416 -2.464584 -4.24362 -3.354102 -3.354102 
C -4.24362 -2.464584 -4.743416 -1.257969 -4.743416 0 
C -4.743416 1.257969 -4.24362 2.464584 -3.354102 3.354102 
C -2.464584 4.24362 -1.257969 4.743416 0 4.743416 
z
" style="stroke: #8c5f00"/>
    </defs>
    <g clip-path="url(#pbe15a9eb13)">
     <use xlink:href="#mdfd2752a7e" x="118.865358" y="136.380938" style="fill: #f4b942; stroke: #8c5f00"/>
    </g>
   </g>
   <g id="PathCollection_2">
    <defs>
     <path id="ma3647f62b3" d="M 0 4.1833 
C 1.109424 4.1833 2.173559 3.742521 2.95804 2.95804 
C 3.742521 2.173559 4.1833 1.109424 4.1833 0 
C 4.1833 -1.109424 3.742521 -2.173559 2.95804 -2.95804 
C 2.173559 -3.742521 1.109424 -4.1833 0 -4.1833 
C -1.109424 -4.1833 -2.173559 -3.742521 -2.95804 -2.95804 
C -3.742521 -2.173559 -4.1833 -1.109424 -4.1833 0 
C -4.1833 1.109424 -3.742521 2.173559 -2.95804 2.95804 
C -2.173559 3.742521 -1.109424 4.1833 0 4.1833 
z
" style="stroke: #d62728"/>
    </defs>
    <g clip-path="url(#pbe15a9eb13)">
     <use xlink:href="#ma3647f62b3" x="178.861761" y="125.46342" style="fill: #d62728; stroke: #d62728"/>
    </g>
   </g>
   <g id="PathCollection_3">
    <defs>
     <path id="m60aef669da" d="M 0 4.1833 
C 1.109424 4.1833 2.173559 3.742521 2.95804 2.95804 
C 3.742521 2.173559 4.1833 1.109424 4.1833 0 
C 4.1833 -1.109424 3.742521 -2.173559 2.95804 -2.95804 
C 2.173559 -3.742521 1.109424 -4.1833 0 -4.1833 
C -1.109424 -4.1833 -2.173559 -3.742521 -2.95804 -2.95804 
C -3.742521 -2.173559 -4.1833 -1.109424 -4.1833 0 
C -4.1833 1.109424 -3.742521 2.173559 -2.95804 2.95804 
C -2.173559 3.742521 -1.109424 4.1833 0 4.1833 
z
" style="stroke: #006bb6"/>
    </defs>
    <g clip-path="url(#pbe15a9eb13)">
     <use xlink:href="#m60aef669da" x="217.859423" y="118.367034" style="fill: #006bb6; stroke: #006bb6"/>
    </g>
   </g>
  </g>
  <g id="axes_2">
   <g id="patch_3">
    <path d="M 319.680351 254.64351 
L 551.410587 254.64351 
L 551.410587 18.118365 
L 319.680351 18.118365 
z
" style="fill: #ffffff"/>
   </g>
   <g id="patch_4">
    <path d="M 503.590767 117.235932 
Q 481.889994 137.170753 461.835942 155.592858 
" clip-path="url(#p92c1eb95df)" style="fill: none; stroke: #7b2cbf; stroke-width: 2; stroke-linecap: round"/>
    <path d="M 467.424329 153.989756 
L 461.835942 155.592858 
L 463.906493 150.160288 
" clip-path="url(#p92c1eb95df)" style="fill: none; stroke: #7b2cbf; stroke-width: 2; stroke-linecap: round"/>
   </g>
   <g id="patch_5">
    <path d="M 507.053834 110.730721 
Q 506.094459 83.557177 505.1982 58.171374 
" clip-path="url(#p92c1eb95df)" style="fill: none; stroke: #006bb6; stroke-width: 1.6; stroke-linecap: round"/>
    <path d="M 502.783293 63.459874 
L 505.1982 58.171374 
L 507.980055 63.276399 
" clip-path="url(#p92c1eb95df)" style="fill: none; stroke: #006bb6; stroke-width: 1.6; stroke-linecap: round"/>
   </g>
   <g id="matplotlib.axis_1">
    <g id="xtick_1">
     <g id="line2d_6">
      <path d="M 340.278594 254.64351 
L 340.278594 18.118365 
" clip-path="url(#p92c1eb95df)" style="fill: none; stroke: #b0b0b0; stroke-opacity: 0.18; stroke-width: 0.8; stroke-linecap: square"/>
     </g>
     <g id="line2d_7">
      <defs>
       <path id="mdcc46b4013" d="M 0 0 
L 0 3.5 
" style="stroke: #000000; stroke-width: 0.8"/>
      </defs>
      <g>
       <use xlink:href="#mdcc46b4013" x="340.278594" y="254.64351" style="stroke: #000000; stroke-width: 0.8"/>
      </g>
     </g>
     <g id="text_5">
      <!-- 0.0 -->
      <g transform="translate(332.327031 269.241947) scale(0.1 -0.1)">
       <defs>
        <path id="DejaVuSans-30" d="M 2034 4250 
Q 1547 4250 1301 3770 
Q 1056 3291 1056 2328 
Q 1056 1369 1301 889 
Q 1547 409 2034 409 
Q 2525 409 2770 889 
Q 3016 1369 3016 2328 
Q 3016 3291 2770 3770 
Q 2525 4250 2034 4250 
z
M 2034 4750 
Q 2819 4750 3233 4129 
Q 3647 3509 3647 2328 
Q 3647 1150 3233 529 
Q 2819 -91 2034 -91 
Q 1250 -91 836 529 
Q 422 1150 422 2328 
Q 422 3509 836 4129 
Q 1250 4750 2034 4750 
z
" transform="scale(0.015625)"/>
        <path id="DejaVuSans-2e" d="M 684 794 
L 1344 794 
L 1344 0 
L 684 0 
L 684 794 
z
" transform="scale(0.015625)"/>
       </defs>
       <use xlink:href="#DejaVuSans-30"/>
       <use xlink:href="#DejaVuSans-2e" transform="translate(63.623047 0)"/>
       <use xlink:href="#DejaVuSans-30" transform="translate(95.410156 0)"/>
      </g>
     </g>
    </g>
    <g id="xtick_2">
     <g id="line2d_8">
      <path d="M 391.774202 254.64351 
L 391.774202 18.118365 
" clip-path="url(#p92c1eb95df)" style="fill: none; stroke: #b0b0b0; stroke-opacity: 0.18; stroke-width: 0.8; stroke-linecap: square"/>
     </g>
     <g id="line2d_9">
      <g>
       <use xlink:href="#mdcc46b4013" x="391.774202" y="254.64351" style="stroke: #000000; stroke-width: 0.8"/>
      </g>
     </g>
     <g id="text_6">
      <!-- 0.5 -->
      <g transform="translate(383.82264 269.241947) scale(0.1 -0.1)">
       <defs>
        <path id="DejaVuSans-35" d="M 691 4666 
L 3169 4666 
L 3169 4134 
L 1269 4134 
L 1269 2991 
Q 1406 3038 1543 3061 
Q 1681 3084 1819 3084 
Q 2600 3084 3056 2656 
Q 3513 2228 3513 1497 
Q 3513 744 3044 326 
Q 2575 -91 1722 -91 
Q 1428 -91 1123 -41 
Q 819 9 494 109 
L 494 744 
Q 775 591 1075 516 
Q 1375 441 1709 441 
Q 2250 441 2565 725 
Q 2881 1009 2881 1497 
Q 2881 1984 2565 2268 
Q 2250 2553 1709 2553 
Q 1456 2553 1204 2497 
Q 953 2441 691 2322 
L 691 4666 
z
" transform="scale(0.015625)"/>
       </defs>
       <use xlink:href="#DejaVuSans-30"/>
       <use xlink:href="#DejaVuSans-2e" transform="translate(63.623047 0)"/>
       <use xlink:href="#DejaVuSans-35" transform="translate(95.410156 0)"/>
      </g>
     </g>
    </g>
    <g id="xtick_3">
     <g id="line2d_10">
      <path d="M 443.26981 254.64351 
L 443.26981 18.118365 
" clip-path="url(#p92c1eb95df)" style="fill: none; stroke: #b0b0b0; stroke-opacity: 0.18; stroke-width: 0.8; stroke-linecap: square"/>
     </g>
     <g id="line2d_11">
      <g>
       <use xlink:href="#mdcc46b4013" x="443.26981" y="254.64351" style="stroke: #000000; stroke-width: 0.8"/>
      </g>
     </g>
     <g id="text_7">
      <!-- 1.0 -->
      <g transform="translate(435.318248 269.241947) scale(0.1 -0.1)">
       <use xlink:href="#DejaVuSans-31"/>
       <use xlink:href="#DejaVuSans-2e" transform="translate(63.623047 0)"/>
       <use xlink:href="#DejaVuSans-30" transform="translate(95.410156 0)"/>
      </g>
     </g>
    </g>
    <g id="xtick_4">
     <g id="line2d_12">
      <path d="M 494.765418 254.64351 
L 494.765418 18.118365 
" clip-path="url(#p92c1eb95df)" style="fill: none; stroke: #b0b0b0; stroke-opacity: 0.18; stroke-width: 0.8; stroke-linecap: square"/>
     </g>
     <g id="line2d_13">
      <g>
       <use xlink:href="#mdcc46b4013" x="494.765418" y="254.64351" style="stroke: #000000; stroke-width: 0.8"/>
      </g>
     </g>
     <g id="text_8">
      <!-- 1.5 -->
      <g transform="translate(486.813856 269.241947) scale(0.1 -0.1)">
       <use xlink:href="#DejaVuSans-31"/>
       <use xlink:href="#DejaVuSans-2e" transform="translate(63.623047 0)"/>
       <use xlink:href="#DejaVuSans-35" transform="translate(95.410156 0)"/>
      </g>
     </g>
    </g>
    <g id="xtick_5">
     <g id="line2d_14">
      <path d="M 546.261026 254.64351 
L 546.261026 18.118365 
" clip-path="url(#p92c1eb95df)" style="fill: none; stroke: #b0b0b0; stroke-opacity: 0.18; stroke-width: 0.8; stroke-linecap: square"/>
     </g>
     <g id="line2d_15">
      <g>
       <use xlink:href="#mdcc46b4013" x="546.261026" y="254.64351" style="stroke: #000000; stroke-width: 0.8"/>
      </g>
     </g>
     <g id="text_9">
      <!-- 2.0 -->
      <g transform="translate(538.309464 269.241947) scale(0.1 -0.1)">
       <use xlink:href="#DejaVuSans-32"/>
       <use xlink:href="#DejaVuSans-2e" transform="translate(63.623047 0)"/>
       <use xlink:href="#DejaVuSans-30" transform="translate(95.410156 0)"/>
      </g>
     </g>
    </g>
    <g id="text_10">
     <!-- distance from star -->
     <g transform="translate(389.863438 282.920073) scale(0.1 -0.1)">
      <defs>
       <path id="DejaVuSans-73" d="M 2834 3397 
L 2834 2853 
Q 2591 2978 2328 3040 
Q 2066 3103 1784 3103 
Q 1356 3103 1142 2972 
Q 928 2841 928 2578 
Q 928 2378 1081 2264 
Q 1234 2150 1697 2047 
L 1894 2003 
Q 2506 1872 2764 1633 
Q 3022 1394 3022 966 
Q 3022 478 2636 193 
Q 2250 -91 1575 -91 
Q 1294 -91 989 -36 
Q 684 19 347 128 
L 347 722 
Q 666 556 975 473 
Q 1284 391 1588 391 
Q 1994 391 2212 530 
Q 2431 669 2431 922 
Q 2431 1156 2273 1281 
Q 2116 1406 1581 1522 
L 1381 1569 
Q 847 1681 609 1914 
Q 372 2147 372 2553 
Q 372 3047 722 3315 
Q 1072 3584 1716 3584 
Q 2034 3584 2315 3537 
Q 2597 3491 2834 3397 
z
" transform="scale(0.015625)"/>
      </defs>
      <use xlink:href="#DejaVuSans-64"/>
      <use xlink:href="#DejaVuSans-69" transform="translate(63.476562 0)"/>
      <use xlink:href="#DejaVuSans-73" transform="translate(91.259766 0)"/>
      <use xlink:href="#DejaVuSans-74" transform="translate(143.359375 0)"/>
      <use xlink:href="#DejaVuSans-61" transform="translate(182.568359 0)"/>
      <use xlink:href="#DejaVuSans-6e" transform="translate(243.847656 0)"/>
      <use xlink:href="#DejaVuSans-63" transform="translate(307.226562 0)"/>
      <use xlink:href="#DejaVuSans-65" transform="translate(362.207031 0)"/>
      <use xlink:href="#DejaVuSans-20" transform="translate(423.730469 0)"/>
      <use xlink:href="#DejaVuSans-66" transform="translate(455.517578 0)"/>
      <use xlink:href="#DejaVuSans-72" transform="translate(490.722656 0)"/>
      <use xlink:href="#DejaVuSans-6f" transform="translate(529.585938 0)"/>
      <use xlink:href="#DejaVuSans-6d" transform="translate(590.767578 0)"/>
      <use xlink:href="#DejaVuSans-20" transform="translate(688.179688 0)"/>
      <use xlink:href="#DejaVuSans-73" transform="translate(719.966797 0)"/>
      <use xlink:href="#DejaVuSans-74" transform="translate(772.066406 0)"/>
      <use xlink:href="#DejaVuSans-61" transform="translate(811.275391 0)"/>
      <use xlink:href="#DejaVuSans-72" transform="translate(872.554688 0)"/>
     </g>
    </g>
   </g>
   <g id="matplotlib.axis_2">
    <g id="ytick_1">
     <g id="line2d_16">
      <path d="M 319.680351 230.990995 
L 551.410587 230.990995 
" clip-path="url(#p92c1eb95df)" style="fill: none; stroke: #b0b0b0; stroke-opacity: 0.18; stroke-width: 0.8; stroke-linecap: square"/>
     </g>
     <g id="line2d_17">
      <defs>
       <path id="mfb13d29a66" d="M 0 0 
L -3.5 0 
" style="stroke: #000000; stroke-width: 0.8"/>
      </defs>
      <g>
       <use xlink:href="#mfb13d29a66" x="319.680351" y="230.990995" style="stroke: #000000; stroke-width: 0.8"/>
      </g>
     </g>
     <g id="text_11">
      <!-- −0.4 -->
      <g transform="translate(288.397538 234.790214) scale(0.1 -0.1)">
       <defs>
        <path id="DejaVuSans-2212" d="M 678 2272 
L 4684 2272 
L 4684 1741 
L 678 1741 
L 678 2272 
z
" transform="scale(0.015625)"/>
        <path id="DejaVuSans-34" d="M 2419 4116 
L 825 1625 
L 2419 1625 
L 2419 4116 
z
M 2253 4666 
L 3047 4666 
L 3047 1625 
L 3713 1625 
L 3713 1100 
L 3047 1100 
L 3047 0 
L 2419 0 
L 2419 1100 
L 313 1100 
L 313 1709 
L 2253 4666 
z
" transform="scale(0.015625)"/>
       </defs>
       <use xlink:href="#DejaVuSans-2212"/>
       <use xlink:href="#DejaVuSans-30" transform="translate(83.789062 0)"/>
       <use xlink:href="#DejaVuSans-2e" transform="translate(147.412109 0)"/>
       <use xlink:href="#DejaVuSans-34" transform="translate(179.199219 0)"/>
      </g>
     </g>
    </g>
    <g id="ytick_2">
     <g id="line2d_18">
      <path d="M 319.680351 199.454309 
L 551.410587 199.454309 
" clip-path="url(#p92c1eb95df)" style="fill: none; stroke: #b0b0b0; stroke-opacity: 0.18; stroke-width: 0.8; stroke-linecap: square"/>
     </g>
     <g id="line2d_19">
      <g>
       <use xlink:href="#mfb13d29a66" x="319.680351" y="199.454309" style="stroke: #000000; stroke-width: 0.8"/>
      </g>
     </g>
     <g id="text_12">
      <!-- −0.2 -->
      <g transform="translate(288.397538 203.253528) scale(0.1 -0.1)">
       <use xlink:href="#DejaVuSans-2212"/>
       <use xlink:href="#DejaVuSans-30" transform="translate(83.789062 0)"/>
       <use xlink:href="#DejaVuSans-2e" transform="translate(147.412109 0)"/>
       <use xlink:href="#DejaVuSans-32" transform="translate(179.199219 0)"/>
      </g>
     </g>
    </g>
    <g id="ytick_3">
     <g id="line2d_20">
      <path d="M 319.680351 167.917623 
L 551.410587 167.917623 
" clip-path="url(#p92c1eb95df)" style="fill: none; stroke: #b0b0b0; stroke-opacity: 0.18; stroke-width: 0.8; stroke-linecap: square"/>
     </g>
     <g id="line2d_21">
      <g>
       <use xlink:href="#mfb13d29a66" x="319.680351" y="167.917623" style="stroke: #000000; stroke-width: 0.8"/>
      </g>
     </g>
     <g id="text_13">
      <!-- 0.0 -->
      <g transform="translate(296.777226 171.716842) scale(0.1 -0.1)">
       <use xlink:href="#DejaVuSans-30"/>
       <use xlink:href="#DejaVuSans-2e" transform="translate(63.623047 0)"/>
       <use xlink:href="#DejaVuSans-30" transform="translate(95.410156 0)"/>
      </g>
     </g>
    </g>
    <g id="ytick_4">
     <g id="line2d_22">
      <path d="M 319.680351 136.380938 
L 551.410587 136.380938 
" clip-path="url(#p92c1eb95df)" style="fill: none; stroke: #b0b0b0; stroke-opacity: 0.18; stroke-width: 0.8; stroke-linecap: square"/>
     </g>
     <g id="line2d_23">
      <g>
       <use xlink:href="#mfb13d29a66" x="319.680351" y="136.380938" style="stroke: #000000; stroke-width: 0.8"/>
      </g>
     </g>
     <g id="text_14">
      <!-- 0.2 -->
      <g transform="translate(296.777226 140.180156) scale(0.1 -0.1)">
       <use xlink:href="#DejaVuSans-30"/>
       <use xlink:href="#DejaVuSans-2e" transform="translate(63.623047 0)"/>
       <use xlink:href="#DejaVuSans-32" transform="translate(95.410156 0)"/>
      </g>
     </g>
    </g>
    <g id="ytick_5">
     <g id="line2d_24">
      <path d="M 319.680351 104.844252 
L 551.410587 104.844252 
" clip-path="url(#p92c1eb95df)" style="fill: none; stroke: #b0b0b0; stroke-opacity: 0.18; stroke-width: 0.8; stroke-linecap: square"/>
     </g>
     <g id="line2d_25">
      <g>
       <use xlink:href="#mfb13d29a66" x="319.680351" y="104.844252" style="stroke: #000000; stroke-width: 0.8"/>
      </g>
     </g>
     <g id="text_15">
      <!-- 0.4 -->
      <g transform="translate(296.777226 108.64347) scale(0.1 -0.1)">
       <use xlink:href="#DejaVuSans-30"/>
       <use xlink:href="#DejaVuSans-2e" transform="translate(63.623047 0)"/>
       <use xlink:href="#DejaVuSans-34" transform="translate(95.410156 0)"/>
      </g>
     </g>
    </g>
    <g id="ytick_6">
     <g id="line2d_26">
      <path d="M 319.680351 73.307565 
L 551.410587 73.307565 
" clip-path="url(#p92c1eb95df)" style="fill: none; stroke: #b0b0b0; stroke-opacity: 0.18; stroke-width: 0.8; stroke-linecap: square"/>
     </g>
     <g id="line2d_27">
      <g>
       <use xlink:href="#mfb13d29a66" x="319.680351" y="73.307565" style="stroke: #000000; stroke-width: 0.8"/>
      </g>
     </g>
     <g id="text_16">
      <!-- 0.6 -->
      <g transform="translate(296.777226 77.106784) scale(0.1 -0.1)">
       <defs>
        <path id="DejaVuSans-36" d="M 2113 2584 
Q 1688 2584 1439 2293 
Q 1191 2003 1191 1497 
Q 1191 994 1439 701 
Q 1688 409 2113 409 
Q 2538 409 2786 701 
Q 3034 994 3034 1497 
Q 3034 2003 2786 2293 
Q 2538 2584 2113 2584 
z
M 3366 4563 
L 3366 3988 
Q 3128 4100 2886 4159 
Q 2644 4219 2406 4219 
Q 1781 4219 1451 3797 
Q 1122 3375 1075 2522 
Q 1259 2794 1537 2939 
Q 1816 3084 2150 3084 
Q 2853 3084 3261 2657 
Q 3669 2231 3669 1497 
Q 3669 778 3244 343 
Q 2819 -91 2113 -91 
Q 1303 -91 875 529 
Q 447 1150 447 2328 
Q 447 3434 972 4092 
Q 1497 4750 2381 4750 
Q 2619 4750 2861 4703 
Q 3103 4656 3366 4563 
z
" transform="scale(0.015625)"/>
       </defs>
       <use xlink:href="#DejaVuSans-30"/>
       <use xlink:href="#DejaVuSans-2e" transform="translate(63.623047 0)"/>
       <use xlink:href="#DejaVuSans-36" transform="translate(95.410156 0)"/>
      </g>
     </g>
    </g>
    <g id="ytick_7">
     <g id="line2d_28">
      <path d="M 319.680351 41.770879 
L 551.410587 41.770879 
" clip-path="url(#p92c1eb95df)" style="fill: none; stroke: #b0b0b0; stroke-opacity: 0.18; stroke-width: 0.8; stroke-linecap: square"/>
     </g>
     <g id="line2d_29">
      <g>
       <use xlink:href="#mfb13d29a66" x="319.680351" y="41.770879" style="stroke: #000000; stroke-width: 0.8"/>
      </g>
     </g>
     <g id="text_17">
      <!-- 0.8 -->
      <g transform="translate(296.777226 45.570098) scale(0.1 -0.1)">
       <defs>
        <path id="DejaVuSans-38" d="M 2034 2216 
Q 1584 2216 1326 1975 
Q 1069 1734 1069 1313 
Q 1069 891 1326 650 
Q 1584 409 2034 409 
Q 2484 409 2743 651 
Q 3003 894 3003 1313 
Q 3003 1734 2745 1975 
Q 2488 2216 2034 2216 
z
M 1403 2484 
Q 997 2584 770 2862 
Q 544 3141 544 3541 
Q 544 4100 942 4425 
Q 1341 4750 2034 4750 
Q 2731 4750 3128 4425 
Q 3525 4100 3525 3541 
Q 3525 3141 3298 2862 
Q 3072 2584 2669 2484 
Q 3125 2378 3379 2068 
Q 3634 1759 3634 1313 
Q 3634 634 3220 271 
Q 2806 -91 2034 -91 
Q 1263 -91 848 271 
Q 434 634 434 1313 
Q 434 1759 690 2068 
Q 947 2378 1403 2484 
z
M 1172 3481 
Q 1172 3119 1398 2916 
Q 1625 2713 2034 2713 
Q 2441 2713 2670 2916 
Q 2900 3119 2900 3481 
Q 2900 3844 2670 4047 
Q 2441 4250 2034 4250 
Q 1625 4250 1398 4047 
Q 1172 3844 1172 3481 
z
" transform="scale(0.015625)"/>
       </defs>
       <use xlink:href="#DejaVuSans-30"/>
       <use xlink:href="#DejaVuSans-2e" transform="translate(63.623047 0)"/>
       <use xlink:href="#DejaVuSans-38" transform="translate(95.410156 0)"/>
      </g>
     </g>
    </g>
    <g id="text_18">
     <!-- height -->
     <g transform="translate(282.317851 152.318437) rotate(-90) scale(0.1 -0.1)">
      <defs>
       <path id="DejaVuSans-68" d="M 3513 2113 
L 3513 0 
L 2938 0 
L 2938 2094 
Q 2938 2591 2744 2837 
Q 2550 3084 2163 3084 
Q 1697 3084 1428 2787 
Q 1159 2491 1159 1978 
L 1159 0 
L 581 0 
L 581 4863 
L 1159 4863 
L 1159 2956 
Q 1366 3272 1645 3428 
Q 1925 3584 2291 3584 
Q 2894 3584 3203 3211 
Q 3513 2838 3513 2113 
z
" transform="scale(0.015625)"/>
       <path id="DejaVuSans-67" d="M 2906 1791 
Q 2906 2416 2648 2759 
Q 2391 3103 1925 3103 
Q 1463 3103 1205 2759 
Q 947 2416 947 1791 
Q 947 1169 1205 825 
Q 1463 481 1925 481 
Q 2391 481 2648 825 
Q 2906 1169 2906 1791 
z
M 3481 434 
Q 3481 -459 3084 -895 
Q 2688 -1331 1869 -1331 
Q 1566 -1331 1297 -1286 
Q 1028 -1241 775 -1147 
L 775 -588 
Q 1028 -725 1275 -790 
Q 1522 -856 1778 -856 
Q 2344 -856 2625 -561 
Q 2906 -266 2906 331 
L 2906 616 
Q 2728 306 2450 153 
Q 2172 0 1784 0 
Q 1141 0 747 490 
Q 353 981 353 1791 
Q 353 2603 747 3093 
Q 1141 3584 1784 3584 
Q 2172 3584 2450 3431 
Q 2728 3278 2906 2969 
L 2906 3500 
L 3481 3500 
L 3481 434 
z
" transform="scale(0.015625)"/>
      </defs>
      <use xlink:href="#DejaVuSans-68"/>
      <use xlink:href="#DejaVuSans-65" transform="translate(63.378906 0)"/>
      <use xlink:href="#DejaVuSans-69" transform="translate(124.902344 0)"/>
      <use xlink:href="#DejaVuSans-67" transform="translate(152.685547 0)"/>
      <use xlink:href="#DejaVuSans-68" transform="translate(216.162109 0)"/>
      <use xlink:href="#DejaVuSans-74" transform="translate(279.541016 0)"/>
     </g>
    </g>
   </g>
   <g id="line2d_30">
    <path d="M 319.680351 167.917623 
L 551.410587 167.917623 
" clip-path="url(#p92c1eb95df)" style="fill: none; stroke: #555555; stroke-width: 1.4; stroke-linecap: square"/>
   </g>
   <g id="patch_6">
    <path d="M 319.680351 254.64351 
L 319.680351 18.118365 
" style="fill: none; stroke: #000000; stroke-width: 0.8; stroke-linejoin: miter; stroke-linecap: square"/>
   </g>
   <g id="patch_7">
    <path d="M 551.410587 254.64351 
L 551.410587 18.118365 
" style="fill: none; stroke: #000000; stroke-width: 0.8; stroke-linejoin: miter; stroke-linecap: square"/>
   </g>
   <g id="patch_8">
    <path d="M 319.680351 254.64351 
L 551.410587 254.64351 
" style="fill: none; stroke: #000000; stroke-width: 0.8; stroke-linejoin: miter; stroke-linecap: square"/>
   </g>
   <g id="patch_9">
    <path d="M 319.680351 18.118365 
L 551.410587 18.118365 
" style="fill: none; stroke: #000000; stroke-width: 0.8; stroke-linejoin: miter; stroke-linecap: square"/>
   </g>
   <g id="text_19">
    <!-- $M_1$ -->
    <g transform="translate(435.26981 189.917623) scale(0.1 -0.1)">
     <use xlink:href="#DejaVuSans-Oblique-4d" transform="translate(0 0.09375)"/>
     <use xlink:href="#DejaVuSans-31" transform="translate(86.279297 -16.3125) scale(0.7)"/>
    </g>
   </g>
   <g id="text_20">
    <!-- $M_2$ -->
    <g transform="translate(512.124364 108.728423) scale(0.1 -0.1)">
     <use xlink:href="#DejaVuSans-Oblique-4d" transform="translate(0 0.09375)"/>
     <use xlink:href="#DejaVuSans-32" transform="translate(86.279297 -16.3125) scale(0.7)"/>
    </g>
   </g>
   <g id="text_21">
    <!-- force from $M_1$ -->
    <g transform="translate(466.631009 105.425547) rotate(-335) scale(0.08 -0.08)">
     <use xlink:href="#DejaVuSans-66" transform="translate(0 0.015625)"/>
     <use xlink:href="#DejaVuSans-6f" transform="translate(35.205078 0.015625)"/>
     <use xlink:href="#DejaVuSans-72" transform="translate(96.386719 0.015625)"/>
     <use xlink:href="#DejaVuSans-63" transform="translate(137.5 0.015625)"/>
     <use xlink:href="#DejaVuSans-65" transform="translate(192.480469 0.015625)"/>
     <use xlink:href="#DejaVuSans-20" transform="translate(254.003906 0.015625)"/>
     <use xlink:href="#DejaVuSans-66" transform="translate(285.791016 0.015625)"/>
     <use xlink:href="#DejaVuSans-72" transform="translate(320.996094 0.015625)"/>
     <use xlink:href="#DejaVuSans-6f" transform="translate(362.109375 0.015625)"/>
     <use xlink:href="#DejaVuSans-6d" transform="translate(423.291016 0.015625)"/>
     <use xlink:href="#DejaVuSans-20" transform="translate(520.703125 0.015625)"/>
     <use xlink:href="#DejaVuSans-Oblique-4d" transform="translate(552.490234 0.015625)"/>
     <use xlink:href="#DejaVuSans-31" transform="translate(638.769531 -16.390625) scale(0.7)"/>
    </g>
   </g>
   <g id="text_22">
    <!-- vertical velocity -->
    <g transform="translate(508.154276 68.577063) scale(0.08 -0.08)">
     <defs>
      <path id="DejaVuSans-79" d="M 2059 -325 
Q 1816 -950 1584 -1140 
Q 1353 -1331 966 -1331 
L 506 -1331 
L 506 -850 
L 844 -850 
Q 1081 -850 1212 -737 
Q 1344 -625 1503 -206 
L 1606 56 
L 191 3500 
L 800 3500 
L 1894 763 
L 2988 3500 
L 3597 3500 
L 2059 -325 
z
" transform="scale(0.015625)"/>
     </defs>
     <use xlink:href="#DejaVuSans-76"/>
     <use xlink:href="#DejaVuSans-65" transform="translate(59.179688 0)"/>
     <use xlink:href="#DejaVuSans-72" transform="translate(120.703125 0)"/>
     <use xlink:href="#DejaVuSans-74" transform="translate(161.816406 0)"/>
     <use xlink:href="#DejaVuSans-69" transform="translate(201.025391 0)"/>
     <use xlink:href="#DejaVuSans-63" transform="translate(228.808594 0)"/>
     <use xlink:href="#DejaVuSans-61" transform="translate(283.789062 0)"/>
     <use xlink:href="#DejaVuSans-6c" transform="translate(345.068359 0)"/>
     <use xlink:href="#DejaVuSans-20" transform="translate(372.851562 0)"/>
     <use xlink:href="#DejaVuSans-76" transform="translate(404.638672 0)"/>
     <use xlink:href="#DejaVuSans-65" transform="translate(463.818359 0)"/>
     <use xlink:href="#DejaVuSans-6c" transform="translate(525.341797 0)"/>
     <use xlink:href="#DejaVuSans-6f" transform="translate(553.125 0)"/>
     <use xlink:href="#DejaVuSans-63" transform="translate(614.306641 0)"/>
     <use xlink:href="#DejaVuSans-69" transform="translate(669.287109 0)"/>
     <use xlink:href="#DejaVuSans-74" transform="translate(697.070312 0)"/>
     <use xlink:href="#DejaVuSans-79" transform="translate(736.279297 0)"/>
    </g>
   </g>
   <g id="text_23">
    <!-- star -->
    <g transform="translate(328.278594 189.917623) scale(0.1 -0.1)">
     <use xlink:href="#DejaVuSans-73"/>
     <use xlink:href="#DejaVuSans-74" transform="translate(52.099609 0)"/>
     <use xlink:href="#DejaVuSans-61" transform="translate(91.308594 0)"/>
     <use xlink:href="#DejaVuSans-72" transform="translate(152.587891 0)"/>
    </g>
   </g>
   <g id="text_24">
    <!-- View along ascending node -->
    <g transform="translate(353.305156 12.118365) scale(0.12 -0.12)">
     <defs>
      <path id="DejaVuSans-56" d="M 1831 0 
L 50 4666 
L 709 4666 
L 2188 738 
L 3669 4666 
L 4325 4666 
L 2547 0 
L 1831 0 
z
" transform="scale(0.015625)"/>
      <path id="DejaVuSans-77" d="M 269 3500 
L 844 3500 
L 1563 769 
L 2278 3500 
L 2956 3500 
L 3675 769 
L 4391 3500 
L 4966 3500 
L 4050 0 
L 3372 0 
L 2619 2869 
L 1863 0 
L 1184 0 
L 269 3500 
z
" transform="scale(0.015625)"/>
     </defs>
     <use xlink:href="#DejaVuSans-56"/>
     <use xlink:href="#DejaVuSans-69" transform="translate(66.158203 0)"/>
     <use xlink:href="#DejaVuSans-65" transform="translate(93.941406 0)"/>
     <use xlink:href="#DejaVuSans-77" transform="translate(155.464844 0)"/>
     <use xlink:href="#DejaVuSans-20" transform="translate(237.251953 0)"/>
     <use xlink:href="#DejaVuSans-61" transform="translate(269.039062 0)"/>
     <use xlink:href="#DejaVuSans-6c" transform="translate(330.318359 0)"/>
     <use xlink:href="#DejaVuSans-6f" transform="translate(358.101562 0)"/>
     <use xlink:href="#DejaVuSans-6e" transform="translate(419.283203 0)"/>
     <use xlink:href="#DejaVuSans-67" transform="translate(482.662109 0)"/>
     <use xlink:href="#DejaVuSans-20" transform="translate(546.138672 0)"/>
     <use xlink:href="#DejaVuSans-61" transform="translate(577.925781 0)"/>
     <use xlink:href="#DejaVuSans-73" transform="translate(639.205078 0)"/>
     <use xlink:href="#DejaVuSans-63" transform="translate(691.304688 0)"/>
     <use xlink:href="#DejaVuSans-65" transform="translate(746.285156 0)"/>
     <use xlink:href="#DejaVuSans-6e" transform="translate(807.808594 0)"/>
     <use xlink:href="#DejaVuSans-64" transform="translate(871.1875 0)"/>
     <use xlink:href="#DejaVuSans-69" transform="translate(934.664062 0)"/>
     <use xlink:href="#DejaVuSans-6e" transform="translate(962.447266 0)"/>
     <use xlink:href="#DejaVuSans-67" transform="translate(1025.826172 0)"/>
     <use xlink:href="#DejaVuSans-20" transform="translate(1089.302734 0)"/>
     <use xlink:href="#DejaVuSans-6e" transform="translate(1121.089844 0)"/>
     <use xlink:href="#DejaVuSans-6f" transform="translate(1184.46875 0)"/>
     <use xlink:href="#DejaVuSans-64" transform="translate(1245.650391 0)"/>
     <use xlink:href="#DejaVuSans-65" transform="translate(1309.126953 0)"/>
    </g>
   </g>
   <g id="PathCollection_4">
    <g clip-path="url(#p92c1eb95df)">
     <use xlink:href="#mdfd2752a7e" x="340.278594" y="167.917623" style="fill: #f4b942; stroke: #8c5f00"/>
    </g>
   </g>
   <g id="PathCollection_5">
    <g clip-path="url(#p92c1eb95df)">
     <use xlink:href="#ma3647f62b3" x="443.26981" y="167.917623" style="fill: #d62728; stroke: #d62728"/>
    </g>
   </g>
   <g id="PathCollection_6">
    <g clip-path="url(#p92c1eb95df)">
     <use xlink:href="#m60aef669da" x="507.124364" y="112.728423" style="fill: #006bb6; stroke: #006bb6"/>
    </g>
   </g>
  </g>
  <g id="axes_3">
   <g id="patch_10">
    <path d="M 629.269524 191.996335 
L 860.99976 191.996335 
L 860.99976 80.76554 
L 629.269524 80.76554 
z
" style="fill: #ffffff"/>
   </g>
   <g id="matplotlib.axis_3">
    <g id="xtick_6">
     <g id="line2d_31">
      <path d="M 639.80245 191.996335 
L 639.80245 80.76554 
" clip-path="url(#p847adb758d)" style="fill: none; stroke: #b0b0b0; stroke-opacity: 0.18; stroke-width: 0.8; stroke-linecap: square"/>
     </g>
     <g id="line2d_32">
      <g>
       <use xlink:href="#mdcc46b4013" x="639.80245" y="191.996335" style="stroke: #000000; stroke-width: 0.8"/>
      </g>
     </g>
     <g id="text_25">
      <!-- −1.0 -->
      <g transform="translate(627.661044 206.594772) scale(0.1 -0.1)">
       <use xlink:href="#DejaVuSans-2212"/>
       <use xlink:href="#DejaVuSans-31" transform="translate(83.789062 0)"/>
       <use xlink:href="#DejaVuSans-2e" transform="translate(147.412109 0)"/>
       <use xlink:href="#DejaVuSans-30" transform="translate(179.199219 0)"/>
      </g>
     </g>
    </g>
    <g id="xtick_7">
     <g id="line2d_33">
      <path d="M 692.468546 191.996335 
L 692.468546 80.76554 
" clip-path="url(#p847adb758d)" style="fill: none; stroke: #b0b0b0; stroke-opacity: 0.18; stroke-width: 0.8; stroke-linecap: square"/>
     </g>
     <g id="line2d_34">
      <g>
       <use xlink:href="#mdcc46b4013" x="692.468546" y="191.996335" style="stroke: #000000; stroke-width: 0.8"/>
      </g>
     </g>
     <g id="text_26">
      <!-- −0.5 -->
      <g transform="translate(680.32714 206.594772) scale(0.1 -0.1)">
       <use xlink:href="#DejaVuSans-2212"/>
       <use xlink:href="#DejaVuSans-30" transform="translate(83.789062 0)"/>
       <use xlink:href="#DejaVuSans-2e" transform="translate(147.412109 0)"/>
       <use xlink:href="#DejaVuSans-35" transform="translate(179.199219 0)"/>
      </g>
     </g>
    </g>
    <g id="xtick_8">
     <g id="line2d_35">
      <path d="M 745.134642 191.996335 
L 745.134642 80.76554 
" clip-path="url(#p847adb758d)" style="fill: none; stroke: #b0b0b0; stroke-opacity: 0.18; stroke-width: 0.8; stroke-linecap: square"/>
     </g>
     <g id="line2d_36">
      <g>
       <use xlink:href="#mdcc46b4013" x="745.134642" y="191.996335" style="stroke: #000000; stroke-width: 0.8"/>
      </g>
     </g>
     <g id="text_27">
      <!-- 0.0 -->
      <g transform="translate(737.183079 206.594772) scale(0.1 -0.1)">
       <use xlink:href="#DejaVuSans-30"/>
       <use xlink:href="#DejaVuSans-2e" transform="translate(63.623047 0)"/>
       <use xlink:href="#DejaVuSans-30" transform="translate(95.410156 0)"/>
      </g>
     </g>
    </g>
    <g id="xtick_9">
     <g id="line2d_37">
      <path d="M 797.800738 191.996335 
L 797.800738 80.76554 
" clip-path="url(#p847adb758d)" style="fill: none; stroke: #b0b0b0; stroke-opacity: 0.18; stroke-width: 0.8; stroke-linecap: square"/>
     </g>
     <g id="line2d_38">
      <g>
       <use xlink:href="#mdcc46b4013" x="797.800738" y="191.996335" style="stroke: #000000; stroke-width: 0.8"/>
      </g>
     </g>
     <g id="text_28">
      <!-- 0.5 -->
      <g transform="translate(789.849175 206.594772) scale(0.1 -0.1)">
       <use xlink:href="#DejaVuSans-30"/>
       <use xlink:href="#DejaVuSans-2e" transform="translate(63.623047 0)"/>
       <use xlink:href="#DejaVuSans-35" transform="translate(95.410156 0)"/>
      </g>
     </g>
    </g>
    <g id="xtick_10">
     <g id="line2d_39">
      <path d="M 850.466833 191.996335 
L 850.466833 80.76554 
" clip-path="url(#p847adb758d)" style="fill: none; stroke: #b0b0b0; stroke-opacity: 0.18; stroke-width: 0.8; stroke-linecap: square"/>
     </g>
     <g id="line2d_40">
      <g>
       <use xlink:href="#mdcc46b4013" x="850.466833" y="191.996335" style="stroke: #000000; stroke-width: 0.8"/>
      </g>
     </g>
     <g id="text_29">
      <!-- 1.0 -->
      <g transform="translate(842.515271 206.594772) scale(0.1 -0.1)">
       <use xlink:href="#DejaVuSans-31"/>
       <use xlink:href="#DejaVuSans-2e" transform="translate(63.623047 0)"/>
       <use xlink:href="#DejaVuSans-30" transform="translate(95.410156 0)"/>
      </g>
     </g>
    </g>
    <g id="text_30">
     <!-- transverse displacement -->
     <g transform="translate(683.222923 220.272897) scale(0.1 -0.1)">
      <use xlink:href="#DejaVuSans-74"/>
      <use xlink:href="#DejaVuSans-72" transform="translate(39.208984 0)"/>
      <use xlink:href="#DejaVuSans-61" transform="translate(80.322266 0)"/>
      <use xlink:href="#DejaVuSans-6e" transform="translate(141.601562 0)"/>
      <use xlink:href="#DejaVuSans-73" transform="translate(204.980469 0)"/>
      <use xlink:href="#DejaVuSans-76" transform="translate(257.080078 0)"/>
      <use xlink:href="#DejaVuSans-65" transform="translate(316.259766 0)"/>
      <use xlink:href="#DejaVuSans-72" transform="translate(377.783203 0)"/>
      <use xlink:href="#DejaVuSans-73" transform="translate(418.896484 0)"/>
      <use xlink:href="#DejaVuSans-65" transform="translate(470.996094 0)"/>
      <use xlink:href="#DejaVuSans-20" transform="translate(532.519531 0)"/>
      <use xlink:href="#DejaVuSans-64" transform="translate(564.306641 0)"/>
      <use xlink:href="#DejaVuSans-69" transform="translate(627.783203 0)"/>
      <use xlink:href="#DejaVuSans-73" transform="translate(655.566406 0)"/>
      <use xlink:href="#DejaVuSans-70" transform="translate(707.666016 0)"/>
      <use xlink:href="#DejaVuSans-6c" transform="translate(771.142578 0)"/>
      <use xlink:href="#DejaVuSans-61" transform="translate(798.925781 0)"/>
      <use xlink:href="#DejaVuSans-63" transform="translate(860.205078 0)"/>
      <use xlink:href="#DejaVuSans-65" transform="translate(915.185547 0)"/>
      <use xlink:href="#DejaVuSans-6d" transform="translate(976.708984 0)"/>
      <use xlink:href="#DejaVuSans-65" transform="translate(1074.121094 0)"/>
      <use xlink:href="#DejaVuSans-6e" transform="translate(1135.644531 0)"/>
      <use xlink:href="#DejaVuSans-74" transform="translate(1199.023438 0)"/>
     </g>
    </g>
   </g>
   <g id="matplotlib.axis_4">
    <g id="ytick_8">
     <g id="line2d_41">
      <path d="M 629.269524 189.047033 
L 860.99976 189.047033 
" clip-path="url(#p847adb758d)" style="fill: none; stroke: #b0b0b0; stroke-opacity: 0.18; stroke-width: 0.8; stroke-linecap: square"/>
     </g>
     <g id="line2d_42">
      <g>
       <use xlink:href="#mfb13d29a66" x="629.269524" y="189.047033" style="stroke: #000000; stroke-width: 0.8"/>
      </g>
     </g>
     <g id="text_31">
      <!-- −0.50 -->
      <g transform="translate(591.624211 192.846252) scale(0.1 -0.1)">
       <use xlink:href="#DejaVuSans-2212"/>
       <use xlink:href="#DejaVuSans-30" transform="translate(83.789062 0)"/>
       <use xlink:href="#DejaVuSans-2e" transform="translate(147.412109 0)"/>
       <use xlink:href="#DejaVuSans-35" transform="translate(179.199219 0)"/>
       <use xlink:href="#DejaVuSans-30" transform="translate(242.822266 0)"/>
      </g>
     </g>
    </g>
    <g id="ytick_9">
     <g id="line2d_43">
      <path d="M 629.269524 162.713985 
L 860.99976 162.713985 
" clip-path="url(#p847adb758d)" style="fill: none; stroke: #b0b0b0; stroke-opacity: 0.18; stroke-width: 0.8; stroke-linecap: square"/>
     </g>
     <g id="line2d_44">
      <g>
       <use xlink:href="#mfb13d29a66" x="629.269524" y="162.713985" style="stroke: #000000; stroke-width: 0.8"/>
      </g>
     </g>
     <g id="text_32">
      <!-- −0.25 -->
      <g transform="translate(591.624211 166.513204) scale(0.1 -0.1)">
       <use xlink:href="#DejaVuSans-2212"/>
       <use xlink:href="#DejaVuSans-30" transform="translate(83.789062 0)"/>
       <use xlink:href="#DejaVuSans-2e" transform="translate(147.412109 0)"/>
       <use xlink:href="#DejaVuSans-32" transform="translate(179.199219 0)"/>
       <use xlink:href="#DejaVuSans-35" transform="translate(242.822266 0)"/>
      </g>
     </g>
    </g>
    <g id="ytick_10">
     <g id="line2d_45">
      <path d="M 629.269524 136.380938 
L 860.99976 136.380938 
" clip-path="url(#p847adb758d)" style="fill: none; stroke: #b0b0b0; stroke-opacity: 0.18; stroke-width: 0.8; stroke-linecap: square"/>
     </g>
     <g id="line2d_46">
      <g>
       <use xlink:href="#mfb13d29a66" x="629.269524" y="136.380938" style="stroke: #000000; stroke-width: 0.8"/>
      </g>
     </g>
     <g id="text_33">
      <!-- 0.00 -->
      <g transform="translate(600.003899 140.180156) scale(0.1 -0.1)">
       <use xlink:href="#DejaVuSans-30"/>
       <use xlink:href="#DejaVuSans-2e" transform="translate(63.623047 0)"/>
       <use xlink:href="#DejaVuSans-30" transform="translate(95.410156 0)"/>
       <use xlink:href="#DejaVuSans-30" transform="translate(159.033203 0)"/>
      </g>
     </g>
    </g>
    <g id="ytick_11">
     <g id="line2d_47">
      <path d="M 629.269524 110.04789 
L 860.99976 110.04789 
" clip-path="url(#p847adb758d)" style="fill: none; stroke: #b0b0b0; stroke-opacity: 0.18; stroke-width: 0.8; stroke-linecap: square"/>
     </g>
     <g id="line2d_48">
      <g>
       <use xlink:href="#mfb13d29a66" x="629.269524" y="110.04789" style="stroke: #000000; stroke-width: 0.8"/>
      </g>
     </g>
     <g id="text_34">
      <!-- 0.25 -->
      <g transform="translate(600.003899 113.847108) scale(0.1 -0.1)">
       <use xlink:href="#DejaVuSans-30"/>
       <use xlink:href="#DejaVuSans-2e" transform="translate(63.623047 0)"/>
       <use xlink:href="#DejaVuSans-32" transform="translate(95.410156 0)"/>
       <use xlink:href="#DejaVuSans-35" transform="translate(159.033203 0)"/>
      </g>
     </g>
    </g>
    <g id="ytick_12">
     <g id="line2d_49">
      <path d="M 629.269524 83.714842 
L 860.99976 83.714842 
" clip-path="url(#p847adb758d)" style="fill: none; stroke: #b0b0b0; stroke-opacity: 0.18; stroke-width: 0.8; stroke-linecap: square"/>
     </g>
     <g id="line2d_50">
      <g>
       <use xlink:href="#mfb13d29a66" x="629.269524" y="83.714842" style="stroke: #000000; stroke-width: 0.8"/>
      </g>
     </g>
     <g id="text_35">
      <!-- 0.50 -->
      <g transform="translate(600.003899 87.51406) scale(0.1 -0.1)">
       <use xlink:href="#DejaVuSans-30"/>
       <use xlink:href="#DejaVuSans-2e" transform="translate(63.623047 0)"/>
       <use xlink:href="#DejaVuSans-35" transform="translate(95.410156 0)"/>
       <use xlink:href="#DejaVuSans-30" transform="translate(159.033203 0)"/>
      </g>
     </g>
    </g>
    <g id="text_36">
     <!-- height -->
     <g transform="translate(585.544524 152.318438) rotate(-90) scale(0.1 -0.1)">
      <use xlink:href="#DejaVuSans-68"/>
      <use xlink:href="#DejaVuSans-65" transform="translate(63.378906 0)"/>
      <use xlink:href="#DejaVuSans-69" transform="translate(124.902344 0)"/>
      <use xlink:href="#DejaVuSans-67" transform="translate(152.685547 0)"/>
      <use xlink:href="#DejaVuSans-68" transform="translate(216.162109 0)"/>
      <use xlink:href="#DejaVuSans-74" transform="translate(279.541016 0)"/>
     </g>
    </g>
   </g>
   <g id="line2d_51">
    <path d="M 745.134642 136.380938 
L 778.628111 128.236126 
L 795.945175 123.789706 
L 808.644798 120.304072 
L 818.689525 117.321705 
L 826.378919 114.824989 
L 833.123949 112.390959 
L 837.966503 110.415598 
L 842.05949 108.492678 
L 844.771774 106.994713 
L 846.969043 105.534733 
L 848.63994 104.114626 
L 849.542382 103.07682 
L 850.1412 102.06323 
L 850.434654 101.074594 
L 850.421889 100.111631 
L 850.102944 99.175041 
L 849.478744 98.265505 
L 848.551107 97.383684 
L 847.322728 96.530221 
L 845.797182 95.705734 
L 843.308647 94.652528 
L 840.312662 93.653262 
L 836.82471 92.709227 
L 831.800644 91.608705 
L 826.076798 90.598607 
L 819.699389 89.680972 
L 811.256645 88.704458 
L 802.045314 87.86659 
L 790.470637 87.067537 
L 778.178939 86.46366 
L 765.364622 86.057347 
L 752.230355 85.850207 
L 738.983864 85.843059 
L 725.834652 86.035932 
L 712.990682 86.428062 
L 700.655092 87.017898 
L 689.022976 87.803105 
L 679.752315 88.629304 
L 671.241643 89.594367 
L 663.589885 90.695488 
L 657.934028 91.714724 
L 652.982268 92.824168 
L 648.774587 94.021582 
L 645.96722 95.041231 
L 643.67244 96.114317 
L 642.294976 96.953369 
L 641.216576 97.82109 
L 640.440376 98.716849 
L 639.968632 99.639996 
L 639.802716 100.589859 
L 639.943112 101.565747 
L 640.38941 102.566951 
L 641.140313 103.592743 
L 642.193638 104.642376 
L 643.546321 105.715088 
L 645.808643 107.17992 
L 648.584371 108.682499 
L 651.859158 110.220882 
L 656.628417 112.191176 
L 662.112315 114.210325 
L 669.573586 116.692043 
L 677.91316 119.231018 
L 688.622902 122.255662 
L 701.946475 125.780146 
L 719.820939 130.260642 
L 749.867109 137.517016 
L 779.524416 144.749933 
L 796.772481 149.192116 
L 809.397568 152.67308 
L 819.364265 155.650448 
L 826.978231 158.142215 
L 833.640867 160.570699 
L 838.410126 162.540993 
L 842.426237 164.458454 
L 845.074856 165.951776 
L 847.206894 167.406874 
L 848.460185 168.471979 
L 849.413 169.513749 
L 850.062567 170.531427 
L 850.406998 171.524272 
L 850.445291 172.491563 
L 850.177336 173.432597 
L 849.60391 174.346688 
L 848.726682 175.233173 
L 847.548202 176.091406 
L 846.071898 176.920764 
L 843.647755 177.980619 
L 840.714407 178.9867 
L 837.287016 179.937707 
L 832.335256 181.047151 
L 826.679398 182.066387 
L 820.365112 182.993355 
L 811.990978 183.9813 
L 802.839723 184.830821 
L 793.017716 185.539446 
L 780.863641 186.185375 
L 768.144487 186.634185 
L 755.061416 186.884101 
L 741.821346 186.934134 
L 728.633678 186.784086 
L 715.706985 186.434549 
L 703.24571 185.886909 
L 691.446938 185.143332 
L 682.002799 184.35224 
L 673.29249 183.421646 
L 665.417256 182.354254 
L 659.558826 181.362491 
L 654.391373 180.279882 
L 649.956622 179.108613 
L 646.960636 178.109347 
L 644.472102 177.056141 
L 642.503883 175.950356 
L 641.375397 175.08737 
L 640.548649 174.196239 
L 640.026044 173.27761 
L 639.809099 172.332153 
L 639.898447 171.360553 
L 640.293828 170.363519 
L 640.994092 169.341774 
L 641.997202 168.296061 
L 643.300241 167.227142 
L 645.49751 165.767162 
L 648.209793 164.269197 
L 651.423071 162.735182 
L 656.118651 160.769993 
L 661.532985 158.755548 
L 668.917 156.278929 
L 677.186952 153.744446 
L 687.826186 150.724256 
L 701.084666 147.203805 
L 718.90291 142.726735 
L 745.134642 136.380938 
L 745.134642 136.380938 
" clip-path="url(#p847adb758d)" style="fill: none; stroke: #006bb6; stroke-width: 2.3; stroke-linecap: square"/>
   </g>
   <g id="line2d_52">
    <path d="M 629.269524 136.380938 
L 860.99976 136.380938 
" clip-path="url(#p847adb758d)" style="fill: none; stroke-dasharray: 1,1.65; stroke-dashoffset: 0; stroke: #777777"/>
   </g>
   <g id="line2d_53">
    <path d="M 745.134642 191.996335 
L 745.134642 80.76554 
" clip-path="url(#p847adb758d)" style="fill: none; stroke-dasharray: 1,1.65; stroke-dashoffset: 0; stroke: #777777"/>
   </g>
   <g id="patch_11">
    <path d="M 629.269524 191.996335 
L 629.269524 80.76554 
" style="fill: none; stroke: #000000; stroke-width: 0.8; stroke-linejoin: miter; stroke-linecap: square"/>
   </g>
   <g id="patch_12">
    <path d="M 860.99976 191.996335 
L 860.99976 80.76554 
" style="fill: none; stroke: #000000; stroke-width: 0.8; stroke-linejoin: miter; stroke-linecap: square"/>
   </g>
   <g id="patch_13">
    <path d="M 629.269524 191.996335 
L 860.99976 191.996335 
" style="fill: none; stroke: #000000; stroke-width: 0.8; stroke-linejoin: miter; stroke-linecap: square"/>
   </g>
   <g id="patch_14">
    <path d="M 629.269524 80.76554 
L 860.99976 80.76554 
" style="fill: none; stroke: #000000; stroke-width: 0.8; stroke-linejoin: miter; stroke-linecap: square"/>
   </g>
   <g id="text_37">
    <!-- conjunction -->
    <g transform="translate(753.134642 85.821486) scale(0.08 -0.08)">
     <use xlink:href="#DejaVuSans-63"/>
     <use xlink:href="#DejaVuSans-6f" transform="translate(54.980469 0)"/>
     <use xlink:href="#DejaVuSans-6e" transform="translate(116.162109 0)"/>
     <use xlink:href="#DejaVuSans-6a" transform="translate(179.541016 0)"/>
     <use xlink:href="#DejaVuSans-75" transform="translate(207.324219 0)"/>
     <use xlink:href="#DejaVuSans-6e" transform="translate(270.703125 0)"/>
     <use xlink:href="#DejaVuSans-63" transform="translate(334.082031 0)"/>
     <use xlink:href="#DejaVuSans-74" transform="translate(389.0625 0)"/>
     <use xlink:href="#DejaVuSans-69" transform="translate(428.271484 0)"/>
     <use xlink:href="#DejaVuSans-6f" transform="translate(456.054688 0)"/>
     <use xlink:href="#DejaVuSans-6e" transform="translate(517.236328 0)"/>
    </g>
   </g>
   <g id="text_38">
    <!-- conjunction -->
    <g transform="translate(753.134642 186.940389) scale(0.08 -0.08)">
     <use xlink:href="#DejaVuSans-63"/>
     <use xlink:href="#DejaVuSans-6f" transform="translate(54.980469 0)"/>
     <use xlink:href="#DejaVuSans-6e" transform="translate(116.162109 0)"/>
     <use xlink:href="#DejaVuSans-6a" transform="translate(179.541016 0)"/>
     <use xlink:href="#DejaVuSans-75" transform="translate(207.324219 0)"/>
     <use xlink:href="#DejaVuSans-6e" transform="translate(270.703125 0)"/>
     <use xlink:href="#DejaVuSans-63" transform="translate(334.082031 0)"/>
     <use xlink:href="#DejaVuSans-74" transform="translate(389.0625 0)"/>
     <use xlink:href="#DejaVuSans-69" transform="translate(428.271484 0)"/>
     <use xlink:href="#DejaVuSans-6f" transform="translate(456.054688 0)"/>
     <use xlink:href="#DejaVuSans-6e" transform="translate(517.236328 0)"/>
    </g>
   </g>
   <g id="text_39">
    <!-- $q=2$, $p=1$: rotating-frame view -->
    <g transform="translate(647.874642 74.76554) scale(0.12 -0.12)">
     <defs>
      <path id="DejaVuSans-Oblique-71" d="M 2669 525 
Q 2438 222 2123 65 
Q 1809 -91 1428 -91 
Q 897 -91 595 267 
Q 294 625 294 1253 
Q 294 1759 480 2231 
Q 666 2703 1013 3078 
Q 1238 3322 1530 3453 
Q 1822 3584 2144 3584 
Q 2531 3584 2781 3431 
Q 3031 3278 3144 2969 
L 3244 3494 
L 3822 3494 
L 2888 -1319 
L 2309 -1319 
L 2669 525 
z
M 891 1338 
Q 891 875 1084 633 
Q 1278 391 1644 391 
Q 2188 391 2572 911 
Q 2956 1431 2956 2175 
Q 2956 2625 2757 2864 
Q 2559 3103 2188 3103 
Q 1916 3103 1684 2976 
Q 1453 2850 1281 2606 
Q 1100 2350 995 2006 
Q 891 1663 891 1338 
z
" transform="scale(0.015625)"/>
      <path id="DejaVuSans-3d" d="M 678 2906 
L 4684 2906 
L 4684 2381 
L 678 2381 
L 678 2906 
z
M 678 1631 
L 4684 1631 
L 4684 1100 
L 678 1100 
L 678 1631 
z
" transform="scale(0.015625)"/>
      <path id="DejaVuSans-2c" d="M 750 794 
L 1409 794 
L 1409 256 
L 897 -744 
L 494 -744 
L 750 256 
L 750 794 
z
" transform="scale(0.015625)"/>
      <path id="DejaVuSans-Oblique-70" d="M 3175 2156 
Q 3175 2616 2975 2859 
Q 2775 3103 2400 3103 
Q 2144 3103 1911 2972 
Q 1678 2841 1497 2591 
Q 1319 2344 1212 1994 
Q 1106 1644 1106 1300 
Q 1106 863 1306 627 
Q 1506 391 1875 391 
Q 2147 391 2380 519 
Q 2613 647 2778 891 
Q 2956 1147 3065 1494 
Q 3175 1841 3175 2156 
z
M 1394 2969 
Q 1625 3272 1939 3428 
Q 2253 3584 2638 3584 
Q 3175 3584 3472 3232 
Q 3769 2881 3769 2247 
Q 3769 1728 3584 1258 
Q 3400 788 3053 416 
Q 2822 169 2531 39 
Q 2241 -91 1919 -91 
Q 1547 -91 1294 64 
Q 1041 219 916 525 
L 556 -1331 
L -19 -1331 
L 922 3500 
L 1497 3500 
L 1394 2969 
z
" transform="scale(0.015625)"/>
     </defs>
     <use xlink:href="#DejaVuSans-Oblique-71" transform="translate(0 0.015625)"/>
     <use xlink:href="#DejaVuSans-3d" transform="translate(82.958984 0.015625)"/>
     <use xlink:href="#DejaVuSans-32" transform="translate(186.230469 0.015625)"/>
     <use xlink:href="#DejaVuSans-2c" transform="translate(249.853516 0.015625)"/>
     <use xlink:href="#DejaVuSans-20" transform="translate(281.640625 0.015625)"/>
     <use xlink:href="#DejaVuSans-Oblique-70" transform="translate(313.427734 0.015625)"/>
     <use xlink:href="#DejaVuSans-3d" transform="translate(396.386719 0.015625)"/>
     <use xlink:href="#DejaVuSans-31" transform="translate(499.658203 0.015625)"/>
     <use xlink:href="#DejaVuSans-3a" transform="translate(563.28125 0.015625)"/>
     <use xlink:href="#DejaVuSans-20" transform="translate(596.972656 0.015625)"/>
     <use xlink:href="#DejaVuSans-72" transform="translate(628.759766 0.015625)"/>
     <use xlink:href="#DejaVuSans-6f" transform="translate(669.873047 0.015625)"/>
     <use xlink:href="#DejaVuSans-74" transform="translate(731.054688 0.015625)"/>
     <use xlink:href="#DejaVuSans-61" transform="translate(770.263672 0.015625)"/>
     <use xlink:href="#DejaVuSans-74" transform="translate(831.542969 0.015625)"/>
     <use xlink:href="#DejaVuSans-69" transform="translate(870.751953 0.015625)"/>
     <use xlink:href="#DejaVuSans-6e" transform="translate(898.535156 0.015625)"/>
     <use xlink:href="#DejaVuSans-67" transform="translate(961.914062 0.015625)"/>
     <use xlink:href="#DejaVuSans-2d" transform="translate(1025.390625 0.015625)"/>
     <use xlink:href="#DejaVuSans-66" transform="translate(1061.474609 0.015625)"/>
     <use xlink:href="#DejaVuSans-72" transform="translate(1096.679688 0.015625)"/>
     <use xlink:href="#DejaVuSans-61" transform="translate(1137.792969 0.015625)"/>
     <use xlink:href="#DejaVuSans-6d" transform="translate(1199.072266 0.015625)"/>
     <use xlink:href="#DejaVuSans-65" transform="translate(1296.484375 0.015625)"/>
     <use xlink:href="#DejaVuSans-20" transform="translate(1358.007812 0.015625)"/>
     <use xlink:href="#DejaVuSans-76" transform="translate(1389.794922 0.015625)"/>
     <use xlink:href="#DejaVuSans-69" transform="translate(1448.974609 0.015625)"/>
     <use xlink:href="#DejaVuSans-65" transform="translate(1476.757812 0.015625)"/>
     <use xlink:href="#DejaVuSans-77" transform="translate(1538.28125 0.015625)"/>
    </g>
   </g>
   <g id="PathCollection_7">
    <defs>
     <path id="m01b022af16" d="M 0 3.708099 
C 0.983399 3.708099 1.926654 3.317391 2.622022 2.622022 
C 3.317391 1.926654 3.708099 0.983399 3.708099 0 
C 3.708099 -0.983399 3.317391 -1.926654 2.622022 -2.622022 
C 1.926654 -3.317391 0.983399 -3.708099 0 -3.708099 
C -0.983399 -3.708099 -1.926654 -3.317391 -2.622022 -2.622022 
C -3.317391 -1.926654 -3.708099 -0.983399 -3.708099 0 
C -3.708099 0.983399 -3.317391 1.926654 -2.622022 2.622022 
C -1.926654 3.317391 -0.983399 3.708099 0 3.708099 
z
" style="stroke: #d62728"/>
    </defs>
    <g clip-path="url(#p847adb758d)">
     <use xlink:href="#m01b022af16" x="745.134642" y="85.821486" style="fill: #d62728; stroke: #d62728"/>
    </g>
   </g>
   <g id="PathCollection_8">
    <g clip-path="url(#p847adb758d)">
     <use xlink:href="#m01b022af16" x="745.134642" y="186.940389" style="fill: #d62728; stroke: #d62728"/>
    </g>
   </g>
   <g id="PathCollection_9">
    <defs>
     <path id="mf07f3abea2" d="M 0 2.95804 
C 0.784481 2.95804 1.536938 2.646362 2.09165 2.09165 
C 2.646362 1.536938 2.95804 0.784481 2.95804 0 
C 2.95804 -0.784481 2.646362 -1.536938 2.09165 -2.09165 
C 1.536938 -2.646362 0.784481 -2.95804 0 -2.95804 
C -0.784481 -2.95804 -1.536938 -2.646362 -2.09165 -2.09165 
C -2.646362 -1.536938 -2.95804 -0.784481 -2.95804 0 
C -2.95804 0.784481 -2.646362 1.536938 -2.09165 2.09165 
C -1.536938 2.646362 -0.784481 2.95804 0 2.95804 
z
" style="stroke: #000000"/>
    </defs>
    <g clip-path="url(#p847adb758d)">
     <use xlink:href="#mf07f3abea2" x="745.134642" y="136.380938" style="stroke: #000000"/>
    </g>
   </g>
   <g id="PathCollection_10">
    <g clip-path="url(#p847adb758d)">
     <use xlink:href="#mf07f3abea2" x="745.134642" y="136.380938" style="stroke: #000000"/>
    </g>
   </g>
  </g>
 </g>
 <defs>
  <clipPath id="pbe15a9eb13">
   <rect x="3.00024" y="20.515819" width="231.730236" height="231.730236"/>
  </clipPath>
  <clipPath id="p92c1eb95df">
   <rect x="319.680351" y="18.118365" width="231.730236" height="236.525145"/>
  </clipPath>
  <clipPath id="p847adb758d">
   <rect x="629.269524" y="80.76554" width="231.730236" height="111.230794"/>
  </clipPath>
 </defs>
</svg>
